<?xml version="1.0" encoding="utf-8"?>
<!-- Generator: Adobe Illustrator 17.1.0, SVG Export Plug-In . SVG Version: 6.00 Build 0)  -->
<!DOCTYPE svg PUBLIC "-//W3C//DTD SVG 1.1//EN" "http://www.w3.org/Graphics/SVG/1.1/DTD/svg11.dtd">
<svg version="1.1" id="Layer_1" xmlns="http://www.w3.org/2000/svg" xmlns:xlink="http://www.w3.org/1999/xlink" x="0px" y="0px"
	 viewBox="0 0 500 20" enable-background="new 0 0 500 20" xml:space="preserve">
<g>
	<path fill="#ECEDED" d="M132.7,11.3c-2.3,0-4.2-1.9-4.2-4.2c0-2.3,1.9-4.2,4.2-4.2c2.3,0,4.2,1.9,4.2,4.2
		C136.9,9.4,135,11.3,132.7,11.3 M144.3,11.3c-2.3,0-4.2-1.9-4.2-4.2c0-2.3,1.9-4.2,4.2-4.2c2.3,0,4.2,1.9,4.2,4.2
		C148.5,9.4,146.6,11.3,144.3,11.3 M155.9,11.3c-2.3,0-4.2-1.9-4.2-4.2c0-2.3,1.9-4.2,4.2-4.2c2.3,0,4.2,1.9,4.2,4.2
		C160.2,9.4,158.3,11.3,155.9,11.3 M365.6,0H133.3c-4.6,0-8.3,3.7-8.3,8.3V14h248.9V8.3C373.9,3.7,370.2,0,365.6,0"/>
	<polyline fill="#F7F7F8" points="373.9,14 373.9,14 125,14 125,20 373.9,20 373.9,14 	"/>
	<path fill="#DADADA" d="M132.7,2.8c-2.3,0-4.2,1.9-4.2,4.2c0,2.3,1.9,4.2,4.2,4.2c2.3,0,4.2-1.9,4.2-4.2
		C136.9,4.7,135,2.8,132.7,2.8"/>
	<path fill="#DADADA" d="M144.3,2.8c-2.3,0-4.2,1.9-4.2,4.2c0,2.3,1.9,4.2,4.2,4.2c2.3,0,4.2-1.9,4.2-4.2
		C148.5,4.7,146.6,2.8,144.3,2.8"/>
	<path fill="#DADADA" d="M155.9,2.8c-2.3,0-4.2,1.9-4.2,4.2c0,2.3,1.9,4.2,4.2,4.2c2.3,0,4.2-1.9,4.2-4.2
		C160.2,4.7,158.3,2.8,155.9,2.8"/>
</g>
</svg>
