<?xml version="1.0" encoding="utf-8"?>
<!-- Generator: Adobe Illustrator 17.1.0, SVG Export Plug-In . SVG Version: 6.00 Build 0)  -->
<!DOCTYPE svg PUBLIC "-//W3C//DTD SVG 1.1//EN" "http://www.w3.org/Graphics/SVG/1.1/DTD/svg11.dtd">
<svg version="1.1" id="Layer_1" xmlns="http://www.w3.org/2000/svg" xmlns:xlink="http://www.w3.org/1999/xlink" x="0px" y="0px"
	 viewBox="0 0 500 30" enable-background="new 0 0 500 30" xml:space="preserve">
<g>
	<path fill="#D9DBDC" d="M450.1,22.6v-9.3c0-7.4-6-13.4-13.4-13.4h-28.1v22.6H450.1z"/>
	<path fill="#D9DBDC" d="M90.4,0H62.3c-7.4,0-13.4,6-13.4,13.4v9.3h41.5V0z M61.2,18.2c-3.8,0-6.8-3.1-6.8-6.8
		c0-3.8,3.1-6.8,6.8-6.8c3.8,0,6.8,3.1,6.8,6.8C68.1,15.1,65,18.2,61.2,18.2z M79.9,18.2c-3.8,0-6.8-3.1-6.8-6.8
		c0-3.8,3.1-6.8,6.8-6.8c3.8,0,6.8,3.1,6.8,6.8C86.8,15.1,83.7,18.2,79.9,18.2z"/>
	<path fill="#D6D8DA" d="M125,22.6V0H90.4v22.6H125z M98.7,4.5c3.8,0,6.8,3.1,6.8,6.8c0,3.8-3.1,6.8-6.8,6.8s-6.8-3.1-6.8-6.8
		C91.8,7.5,94.9,4.5,98.7,4.5z"/>
	<rect x="373.9" fill="#D6D8DA" width="34.6" height="22.6"/>
	<rect x="125" fill="#D6D8D9" width="248.9" height="22.6"/>
	<rect x="408.6" y="22.6" fill="#EEEFF1" width="41.5" height="7.4"/>
	<rect x="48.9" y="22.6" fill="#EEEFF1" width="41.5" height="7.4"/>
	<rect x="373.9" y="22.6" fill="#ECEDEF" width="34.6" height="7.4"/>
	<rect x="90.4" y="22.6" fill="#ECEDEF" width="34.6" height="7.4"/>
	<rect x="125" y="22.6" fill="#EBECEF" width="248.9" height="7.4"/>
	<circle fill="#B5B5B5" cx="61.2" cy="11.3" r="6.8"/>
	<circle fill="#B5B5B5" cx="79.9" cy="11.3" r="6.8"/>
	<circle fill="#B3B3B3" cx="98.7" cy="11.3" r="6.8"/>
</g>
</svg>
