<?xml version="1.0" encoding="utf-8"?>
<!-- Generator: Adobe Illustrator 17.1.0, SVG Export Plug-In . SVG Version: 6.00 Build 0)  -->
<!DOCTYPE svg PUBLIC "-//W3C//DTD SVG 1.1//EN" "http://www.w3.org/Graphics/SVG/1.1/DTD/svg11.dtd">
<svg version="1.1" id="Layer_1" xmlns="http://www.w3.org/2000/svg" xmlns:xlink="http://www.w3.org/1999/xlink" x="0px" y="0px"
	 viewBox="0 0 500 26" enable-background="new 0 0 500 26" xml:space="preserve">
<g>
	<path fill="#E3E4E5" d="M100.2,14.4c-3,0-5.4-2.4-5.4-5.4c0-3,2.4-5.4,5.4-5.4c3,0,5.4,2.4,5.4,5.4C105.6,12,103.2,14.4,100.2,14.4
		 M115,14.4c-3,0-5.4-2.4-5.4-5.4c0-3,2.4-5.4,5.4-5.4c3,0,5.4,2.4,5.4,5.4C120.5,12,118,14.4,115,14.4 M125,0h-24
		c-5.9,0-10.6,4.7-10.6,10.6v7.3H125v-6.5c-0.4-0.7-0.6-1.6-0.6-2.5c0-0.9,0.2-1.7,0.6-2.5V0 M398,0h-24v17.9h34.6v-7.3
		C408.6,4.7,403.8,0,398,0"/>
	<path fill="#E0E1E2" d="M373.9,0H125v6.5c0.9-1.8,2.7-3,4.8-3c3,0,5.4,2.4,5.4,5.4c0,3-2.4,5.4-5.4,5.4c-2.1,0-3.9-1.2-4.8-3v6.5
		h248.9V0"/>
	<path fill="#F2F3F5" d="M125,17.9H90.4V26H125V17.9 M408.6,17.9L408.6,17.9h-34.6V26h34.6V17.9"/>
	<polyline fill="#EFF0F2" points="373.9,17.9 125,17.9 125,26 373.9,26 373.9,17.9 	"/>
	<path fill="#C8C8C8" d="M100.2,3.6c-3,0-5.4,2.4-5.4,5.4c0,3,2.4,5.4,5.4,5.4c3,0,5.4-2.4,5.4-5.4C105.6,6,103.2,3.6,100.2,3.6"/>
	<path fill="#C8C8C8" d="M115,3.6c-3,0-5.4,2.4-5.4,5.4c0,3,2.4,5.4,5.4,5.4c3,0,5.4-2.4,5.4-5.4C120.5,6,118,3.6,115,3.6"/>
	<path fill="#C8C8C8" d="M125,6.5c-0.4,0.7-0.6,1.6-0.6,2.5c0,0.9,0.2,1.7,0.6,2.5V6.5"/>
	<path fill="#C4C4C5" d="M129.9,3.6c-2.1,0-3.9,1.2-4.8,3v4.9c0.9,1.8,2.7,3,4.8,3c3,0,5.4-2.4,5.4-5.4C135.3,6,132.9,3.6,129.9,3.6
		"/>
</g>
</svg>
