<?xml version="1.0" encoding="utf-8"?>
<!-- Generator: Adobe Illustrator 17.1.0, SVG Export Plug-In . SVG Version: 6.00 Build 0)  -->
<!DOCTYPE svg PUBLIC "-//W3C//DTD SVG 1.1//EN" "http://www.w3.org/Graphics/SVG/1.1/DTD/svg11.dtd">
<svg version="1.1" id="Layer_1" xmlns="http://www.w3.org/2000/svg" xmlns:xlink="http://www.w3.org/1999/xlink" x="0px" y="0px"
	 viewBox="0 0 300 84" enable-background="new 0 0 300 84" xml:space="preserve">
<g>
	<path d="M2,28.9h4.9c4.7,0,8.1,0.9,8.1,5.7c0,5.4-4.9,5.9-8.1,5.9h-1v8.9H2V28.9z M5.9,38.3h1c2.2,0,4.2-0.5,4.2-3.8
		c0-2.8-1.5-3.5-4.2-3.5h-1V38.3z"/>
	<path d="M17.3,28.9h3.6v3.3h-3.6V28.9z M17.3,35.2h3.6v14.1h-3.6V35.2z"/>
	<path d="M32.1,38.4c-0.8-0.7-2-1.6-3.4-1.6c-0.7,0-1.8,0.4-1.8,1.3c0,1.4,2.6,2.4,4,3.6c1.5,1.3,2.1,2.2,2.1,3.8
		c0,3.1-2.5,4.2-5.4,4.2c-1.7,0-3.1-0.4-3.7-0.6v-3.2c0.7,0.6,2.1,1.7,3.8,1.7c1.3,0,2.1-0.6,2.1-1.4c0-1.4-2.6-2.5-4.1-3.6
		c-1.5-1.3-1.9-2.1-1.9-3.5c0-2.1,1.5-4.2,5-4.2c1.5,0,2.8,0.4,3.3,0.5V38.4z"/>
	<path d="M46.6,48.8c-1.5,0.5-2.6,0.9-4.4,0.9c-4.1,0-7.4-2.3-7.4-8c0-4.1,2-6.8,6.4-6.8c4.2,0,5.5,1.9,5.5,5.1h-3.8
		c0-2.5-0.2-3.7-1.8-3.7c-1.6,0-2.3,2.2-2.3,4.2c0,3.7,1.8,7.3,5.1,7.3c1.1,0,1.9-0.2,2.8-0.5V48.8z"/>
	<path d="M56.4,47.5L56.4,47.5c-0.4,0.7-1.8,2.2-4.1,2.2c-2.2,0-3.9-1.5-3.9-3.5c0-4.4,6-4.6,8-4.7v-2.4c0-2.1-0.6-2.8-1.8-2.8
		c-1.9,0-1.8,2.2-1.9,3.1h-3.8c0-3,2-4.5,5.8-4.5c4.5,0,5.3,2.1,5.3,4.9v9.6h-3.6V47.5z M56.4,42.8c-1.2,0.1-4.3,0.5-4.3,2.8
		c0,1.2,0.6,2,1.6,2c1.7,0,2.7-1.8,2.7-3.8V42.8z"/>
	<path d="M71.7,49.5c-0.9,0.1-1.7,0.2-2.5,0.2c-2.8,0-4.5-0.7-4.5-3.9V37h-2.6v-1.7h2.6v-3.3l3.6-2.2v5.5h4V37h-4v8.4
		c0,1.9,0.5,2.3,1.8,2.3c0.5,0,1.1,0,1.6-0.2V49.5z"/>
	<path d="M85.2,48.7c-1.6,0.7-2.5,1-4.6,1c-3.7,0-7.2-2.1-7.2-8c0-3.9,1.6-6.7,6.3-6.7c3.9,0,5.7,2.1,5.7,5.3v0.5H77
		c0,2.4,1.4,7.1,5.4,7.1c0.9,0,1.9-0.3,2.8-0.6V48.7z M82,39.3c0-1-0.4-3-2.4-3c-2.1,0-2.5,2.3-2.6,3H82z"/>
	<path d="M88.1,28.9h3.6v20.5h-3.6V28.9z"/>
	<path d="M95.3,28.9h3.6v20.5h-3.6V28.9z"/>
	<path d="M101.8,42.3c0-5.4,2.5-7.4,6.5-7.4c4,0,6.5,2,6.5,7.4c0,5.4-2.5,7.4-6.5,7.4C104.3,49.7,101.8,47.7,101.8,42.3z
		 M108.3,48.3c2.5,0,2.6-2.9,2.6-6s-0.1-6-2.6-6c-2.4,0-2.6,2.9-2.6,6S105.9,48.3,108.3,48.3z"/>
	<path d="M127,28.9h5.5c4.8,0,9.2,1.5,9.2,9.9c0,9.5-4.8,10.5-9.2,10.5H127V28.9z M130.9,46.9h1.6c4.3,0,5.1-2.6,5.1-8.1
		c0-5-0.6-7.6-5.1-7.6h-1.6V46.9z"/>
	<path d="M155.8,48.7c-1.6,0.7-2.5,1-4.6,1c-3.7,0-7.2-2.1-7.2-8c0-3.9,1.6-6.7,6.3-6.7c3.9,0,5.7,2.1,5.7,5.3v0.5h-8.4
		c0,2.4,1.4,7.1,5.4,7.1c0.9,0,1.9-0.3,2.8-0.6V48.7z M152.5,39.3c0-1-0.4-3-2.4-3c-2.1,0-2.5,2.3-2.6,3H152.5z"/>
	<path d="M166.5,38.4c-0.8-0.7-2-1.6-3.4-1.6c-0.7,0-1.8,0.4-1.8,1.3c0,1.4,2.6,2.4,4,3.6c1.5,1.3,2.1,2.2,2.1,3.8
		c0,3.1-2.5,4.2-5.4,4.2c-1.7,0-3.1-0.4-3.7-0.6v-3.2c0.7,0.6,2.1,1.7,3.8,1.7c1.3,0,2.1-0.6,2.1-1.4c0-1.4-2.6-2.5-4.1-3.6
		c-1.5-1.3-1.9-2.1-1.9-3.5c0-2.1,1.5-4.2,5-4.2c1.5,0,2.8,0.4,3.3,0.5V38.4z"/>
	<path d="M169.9,28.9h3.6v3.3h-3.6V28.9z M169.9,35.2h3.6v14.1h-3.6V35.2z"/>
	<path d="M188.7,49.8c0,3.5-1.4,6.2-7,6.2c-2,0-3.3-0.4-4.2-0.6v-3.4c0.7,0.6,2.6,1.9,4.5,1.9c2.8,0,3.1-2,3.1-4.6v-2.1h-0.1
		c-0.5,0.9-1.2,2-3.4,2c-3.8,0-5.2-3-5.2-7.3c0-3.6,1.2-7.1,4.8-7.1c2.2,0,3.2,1.6,3.7,2.6h0.1v-2.3h3.6V49.8z M182.8,47.3
		c2.2,0,2.2-3.1,2.2-5c0-2.1-0.1-5.2-2.2-5.2c-2.1,0-2.4,3.1-2.4,5.1C180.4,44.2,180.7,47.3,182.8,47.3z"/>
	<path d="M192.3,35.2h3.6v3.2h0.1c0.6-1.2,1.7-3.5,4.6-3.5c2.6,0,3.6,1.7,3.6,4.7v9.7h-3.6v-8.8c0-1.8-0.1-3.1-1.5-3.1
		c-2.5,0-3.1,4.1-3.1,6.3v5.5h-3.6V35.2z"/>
	<path d="M231.1,48.4c-1.3,0.5-3.3,1.3-5.8,1.3c-6.5,0-8.9-5.2-8.9-10.9c0-5.4,2.2-10.2,8.4-10.2c4.8,0,7.2,2.3,7.2,5.9h-4.4
		c0-1.6-0.5-3.9-3-3.9c-3.4,0-4,4.8-4,7.6c0,2.4,0.1,9.1,5.5,9.1c2.6,0,4.3-1.5,5.1-2V48.4z"/>
	<path d="M244.8,48.7c-1.6,0.7-2.5,1-4.6,1c-3.7,0-7.2-2.1-7.2-8c0-3.9,1.6-6.7,6.3-6.7c3.9,0,5.7,2.1,5.7,5.3v0.5h-8.4
		c0,2.4,1.4,7.1,5.4,7.1c0.9,0,1.9-0.3,2.8-0.6V48.7z M241.6,39.3c0-1-0.4-3-2.4-3c-2.1,0-2.5,2.3-2.6,3H241.6z"/>
	<path d="M247.8,35.2h3.6v3.2h0.1c0.6-1.2,1.7-3.5,4.6-3.5c2.6,0,3.6,1.7,3.6,4.7v9.7H256v-8.8c0-1.8-0.1-3.1-1.5-3.1
		c-2.5,0-3.1,4.1-3.1,6.3v5.5h-3.6V35.2z"/>
	<path d="M271.5,49.5c-0.9,0.1-1.7,0.2-2.5,0.2c-2.8,0-4.5-0.7-4.5-3.9V37h-2.6v-1.7h2.6v-3.3l3.6-2.2v5.5h4V37h-4v8.4
		c0,1.9,0.5,2.3,1.8,2.3c0.5,0,1.1,0,1.6-0.2V49.5z"/>
	<path d="M274.2,35.2h3.6v3.5h0.1c1-1.8,2.1-3.7,4.8-3.9v3.7c-3.6,0-4.8,1.3-4.8,4.4v6.3h-3.6V35.2z"/>
	<path d="M296.1,48.7c-1.6,0.7-2.5,1-4.6,1c-3.7,0-7.2-2.1-7.2-8c0-3.9,1.6-6.7,6.3-6.7c3.9,0,5.7,2.1,5.7,5.3v0.5h-8.4
		c0,2.4,1.4,7.1,5.4,7.1c0.9,0,1.9-0.3,2.8-0.6V48.7z M292.9,39.3c0-1-0.4-3-2.4-3c-2.1,0-2.5,2.3-2.6,3H292.9z"/>
</g>
</svg>
